<?xml version="1.0" encoding="UTF-8"?>
<svg xmlns="http://www.w3.org/2000/svg" width="72" height="72" viewBox="0 0 72 72">
  <g fill="none" fill-rule="evenodd">
    <rect width="72" height="72" fill="#0077B5"/>
    <path fill="#FFFFFF" d="M20,30 L28,30 L28,52 L20,52 L20,30 Z M24,16 C26.2091391,16 28,17.7908609 28,20 C28,22.2091391 26.2091391,24 24,24 C21.7908609,24 20,22.2091391 20,20 C20,17.7908609 21.7908609,16 24,16 Z M36,30 L43.5,30 L43.5,33.5 C44.7931034,31.4482759 47.2068966,29.5 51,29.5 C59,29.5 60,34.5 60,41.5 L60,52 L52,52 L52,42.5 C52,39.5 51.5,36.5 48,36.5 C44.5,36.5 44,39.5 44,42.5 L44,52 L36,52 L36,30 Z"/>
  </g>
</svg> 